<?xml version="1.0" encoding="UTF-8"?>
<svg id="Ebene_2" data-name="Ebene 2" xmlns="http://www.w3.org/2000/svg" viewBox="0 0 2457.08 1533.02">
  <path id="Salzburg" d="M1044.32,769.66l19.65-14.53c1.37-1.02,3.16-1.3,4.78-.76l44.53,14.81c2.33.78,3.81,3.06,3.57,5.51l-3.42,34.16c-.17,1.67.47,3.32,1.73,4.44l48.58,43.37c2.67,2.39,6.89,1.45,8.32-1.83l13.02-30.11c.06-.14.11-.28.16-.42l11.26-33.77c.43-1.29.34-2.7-.24-3.92l-18.44-38.64c-.98-2.06-3.17-3.24-5.43-2.94l-21.13,2.82c-2.83.38-5.44-1.57-5.88-4.39l-3.5-22.19c-.27-1.72.33-3.45,1.59-4.64l23.82-22.39c1.71-1.6,2.14-4.14,1.07-6.23l-31.93-62.09c-1.27-2.47-.4-5.5,1.99-6.92l25.49-15.14c1.42-.84,3.16-.97,4.68-.34l59.14,24.41c.93.39,1.96.49,2.95.31l44.54-8.18c1.82-.33,3.68.31,4.9,1.71l13.18,15.07c2.63,3.01,1.07,7.73-2.83,8.59l-19.19,4.2c-2.41.53-4.13,2.66-4.13,5.13v41.8c0,1.84.97,3.55,2.55,4.5l16.34,9.8c.73.44,1.56.69,2.41.74l47.74,2.65c2.78.15,4.96,2.46,4.96,5.24v33.83c0,.79-.18,1.58-.53,2.29l-16.07,33.09c-.26.54-.43,1.13-.5,1.72l-5.51,50.51c-.24,2.16.88,4.24,2.81,5.24l25.96,13.38c2.22,1.15,3.33,3.7,2.64,6.11l-8.39,29.37c-.28.98-.27,2.01.03,2.98l17.89,58.36c.42,1.37,1.39,2.52,2.67,3.16l23.49,11.74c1.56.78,3.42.73,4.94-.13l23.61-13.38c2.27-1.29,5.14-.71,6.74,1.35l51.18,65.92c2.35,3.03.77,7.47-2.97,8.34l-25.92,5.98c-2.81.65-4.57,3.44-3.94,6.25l2.28,10.25c.37,1.67-.1,3.42-1.25,4.68l-38.36,41.93c-1.64,1.79-4.29,2.23-6.42,1.05l-116.14-64.31c-.81-.45-1.72-.67-2.65-.66l-42.71.87c-2.75.06-4.99,2.23-5.14,4.97l-.54,10.18c-.12,2.34-1.78,4.31-4.06,4.84l-50.26,11.67c-1.22.28-2.5.12-3.61-.46l-99.46-51.68c-.54-.28-1.12-.46-1.73-.55l-25.25-3.37c-.55-.07-1.09-.24-1.59-.48l-36.04-17.45c-.79-.38-1.67-.56-2.54-.52l-38.04,1.86c-1.05.05-2.07.42-2.91,1.06l-37.89,28.65c-1.16.88-2.63,1.23-4.07.98l-17.24-3c-2.12-.37-3.8-2-4.24-4.11l-15.94-76.89c-.22-1.05-.11-2.15.32-3.13l4.12-9.61c.76-1.77,2.42-2.98,4.34-3.16l102.43-9.57c.95-.09,1.87-.44,2.64-1.01l81.75-60.59c1.31-.97,2.09-2.49,2.12-4.12l.91-47.37c.03-1.32-.45-2.6-1.33-3.59l-6.08-6.84c-.37-.42-.8-.77-1.28-1.05l-28.64-16.67c-2.28-1.33-3.22-4.15-2.19-6.59h0c.37-.87.96-1.62,1.71-2.17Z" fill="#e6007e" stroke="#fff" stroke-miterlimit="10" stroke-width="5"/>
  <path id="Oberösterreich" d="M1126.61,609.94l-3.72-7.9c-.47-1-1.18-1.88-2.05-2.55l-20.86-16.05c-2.29-1.76-3.25-4.75-2.42-7.52l6.85-22.84c.5-1.65,1.59-3.06,3.07-3.96l39.54-23.91c.77-.46,1.62-.78,2.5-.92l21.73-3.48c1.26-.2,2.44-.75,3.42-1.58l31.11-26.53c.92-.78,2.03-1.32,3.22-1.54l68.61-13.04c1.25-.24,2.41-.81,3.35-1.66l30.26-27.19c1.26-1.14,2.07-2.7,2.26-4.38l6.49-56.52c.14-1.22-.04-2.45-.53-3.57l-6.62-15.24c-1.48-3.39-.04-7.35,3.27-9l24.31-12.15c2.33-1.16,5.11-.93,7.22.6l51.98,37.96c3.78,2.76,9.14,1.08,10.68-3.33l4.55-13.08c.24-.69.59-1.34,1.03-1.93l16.99-22.35c.87-1.15,1.37-2.54,1.42-3.98l1.79-54.64c.08-2.55,1.56-4.86,3.84-6l8.12-4.06c2.52-1.26,5.56-.88,7.68.98l52.14,45.41c3.29,2.87,3.16,8.02-.27,10.72l-1.38,1.09c-3.22,2.53-3.57,7.29-.75,10.26l10.97,11.58c1.15,1.21,2.7,1.97,4.36,2.14l26.63,2.66c.53.05,1.05.17,1.55.34l44.5,15.13c2.83.96,5.96,0,7.78-2.37l26.17-34.35c1.69-2.22,4.55-3.22,7.26-2.53l44.77,11.41c1.16.29,2.22.88,3.08,1.7l19.04,18.14c.42.4.9.75,1.41,1.04l55.57,30.97c2.75,1.53,4.13,4.72,3.36,7.77l-2.96,11.84c-.48,1.9-.13,3.92.96,5.55l22.96,34.44c.86,1.3,1.27,2.84,1.15,4.4l-1.44,18.71c-.23,2.94,1.42,5.7,4.11,6.89h0c2.7,1.2,4.35,3.98,4.11,6.92l-2.41,29.68c-.13,1.56-.77,3.03-1.84,4.17l-8.35,8.99c-1.84,1.98-4.65,2.72-7.22,1.89l-13.58-4.35c-3.88-1.24-7.99,1.1-8.9,5.06l-.43,1.87c-.54,2.34-2.24,4.23-4.51,5.01l-46.96,16.22c-2.66.92-5.62.14-7.48-1.96l-25.84-29.17c-1.32-1.49-3.22-2.35-5.21-2.35h-12.73c-2.55,0-4.89,1.39-6.11,3.63l-3.43,6.3c-.39.71-.65,1.48-.77,2.29l-6.68,43.91c-.09.59-.1,1.18-.04,1.77l4.52,43.38c.24,2.33,1.64,4.38,3.72,5.46l71.92,37.32c2.31,1.2,3.75,3.58,3.75,6.18v13.06c0,2.85-1.73,5.41-4.38,6.46l-5.68,2.27c-2.92,1.17-4.69,4.15-4.33,7.27l3.81,32.75c.34,2.97-1.24,5.82-3.94,7.1l-31.22,14.74c-.18.08-.35.17-.52.27l-49.44,28.68c-.2.12-.41.22-.62.32l-38.7,17.51c-1.89.85-4.06.82-5.92-.08l-33.53-16.34c-1.62-.79-3.49-.92-5.2-.36l-34.57,11.26c-3.3,1.07-6.88-.44-8.41-3.56l-17.66-36.12c-1.05-2.15-3.12-3.6-5.5-3.86l-48.26-5.27c-1.87-.2-3.74.36-5.19,1.55l-24.05,19.87c-1.81,1.5-2.74,3.8-2.48,6.14l3.61,32.41c.13,1.13.52,2.21,1.16,3.14l12.79,18.81c1.88,2.76,1.53,6.47-.83,8.84l-26.53,26.53c-2.04,2.04-5.14,2.61-7.78,1.43l-11.39-5.13c-2.56-1.15-4.18-3.73-4.1-6.53l.18-6.94c.06-2.44-1.15-4.74-3.21-6.05l-20.42-13.04c-2.25-1.43-3.48-4.02-3.17-6.67l4.38-37.67c.08-.67.25-1.32.52-1.94l14.01-32.69c.39-.91.58-1.88.56-2.87l-.86-46.4c-.06-3.49-2.71-6.4-6.18-6.79l-58.75-6.62c-3.52-.4-6.18-3.37-6.18-6.92v-27.57c0-3.09,2.03-5.81,5-6.68l18.56-5.46c4.87-1.43,6.62-7.44,3.27-11.26l-25-28.57c-1.74-1.98-4.44-2.82-7-2.15l-39.57,10.32c-1.47.38-3.02.28-4.43-.31l-59.26-24.61c-2.23-.93-4.77-.63-6.73.78l-22.05,15.85c-3.53,2.54-8.51,1.25-10.36-2.69Z" fill="#e6007e" stroke="#fff" stroke-miterlimit="10" stroke-width="5"/>
  <path id="Kärnten" d="M1061.62,1236.52l33.39,9.66c.76.22,1.43.66,1.93,1.26l8.21,9.86c.65.78,1.58,1.28,2.59,1.39l94.43,10.71c.65.07,1.28.31,1.82.69l28.35,19.84c.55.38,1.18.62,1.84.69l26.35,2.82c.42.05.85.02,1.27-.07l39.21-8.61c.76-.17,1.54-.11,2.27.17l55.51,21.43c.25.1.52.17.79.21l41.96,6.83c.42.07.84.07,1.26,0l29.06-4.69c.85-.14,1.72,0,2.48.41l29.96,15.92c.57.3,1.21.46,1.85.46h19.99c.67,0,1.34.17,1.93.5l23.62,13.23c.32.18.61.4.86.65l6.46,6.46c.74.74,1.74,1.16,2.79,1.16h18.25c.3,0,.6.03.89.1l20.28,4.68c.62.14,1.26.13,1.88-.03l24.36-6.31c1.09-.28,2.24-.09,3.18.54l21.54,14.36c.65.43,1.41.66,2.19.66h9.8c1.39,0,2.67.73,3.39,1.92l6.04,10.1c1.57,2.63,5.42,2.54,6.86-.16l10.91-20.36c.51-.96,1.4-1.66,2.45-1.95l23.48-6.32c.57-.15,1.1-.44,1.55-.82l20.48-17.69c.55-.47,1.22-.79,1.93-.91l14.68-2.45c1.38-.23,2.53-1.17,3.04-2.48l16.25-42.43c.57-1.49,1.98-2.49,3.57-2.53l31.95-.89c.91-.03,1.79-.37,2.48-.97l18.62-16.19c1.77-1.54,1.81-4.27.1-5.87l-9.52-8.84c-.8-.75-1.26-1.79-1.26-2.89v-34.43c0-1.17-.52-2.28-1.42-3.03l-8.36-6.96c-1.32-1.1-1.78-2.94-1.12-4.53l12.21-29.66c.43-1.05.39-2.25-.12-3.27l-2.28-4.56c-.57-1.15-.55-2.5.06-3.63l4.93-9.15c.68-1.26.62-2.79-.15-4l-22.27-34.74c-.89-1.38-2.54-2.07-4.15-1.73l-8.81,1.89c-1.53.33-3.11-.28-4.02-1.54l-17.63-24.35c-1.09-1.5-3.07-2.04-4.77-1.3l-18.54,8.06c-.99.43-1.76,1.25-2.13,2.27l-2.35,6.45c-.63,1.73-2.37,2.79-4.2,2.57l-27.35-3.42c-.98-.12-1.98.13-2.78.7l-4.09,2.92c-1.04.74-2.38.94-3.59.52l-19.22-6.69c-1.17-.41-2.46-.24-3.48.44l-8.18,5.45c-1.33.88-3.05.88-4.38,0l-8.15-5.43c-1.04-.7-2.36-.85-3.54-.43l-8.56,3.11c-.38.14-.73.33-1.05.57l-12.33,9.43c-2.09,1.6-5.13.74-6.08-1.72l-7.02-18.25c-.64-1.67-2.32-2.7-4.1-2.51l-22.79,2.44c-1.36.15-2.7-.43-3.54-1.51l-14.47-18.72c-.75-.97-1.9-1.53-3.12-1.53h-15.65c-.82,0-1.63.26-2.3.74l-37.39,26.75c-.48.34-.87.78-1.15,1.29l-8.95,16.11c-.4.73-1.03,1.31-1.78,1.66l-42.04,19.62c-1.13.53-2.45.49-3.55-.11l-22.25-12.05-119.11-65.51c-.58-.32-1.24-.49-1.9-.49h-33.3c-2.1,0-3.84,1.65-3.94,3.75l-.59,12.21c-.09,1.79-1.37,3.3-3.12,3.67l-61.66,13.08c-.88.19-1.8.07-2.61-.34l-101.91-51.94c-.55-.28-1.17-.43-1.79-.43h0c-2.86,0-4.77,2.95-3.6,5.56l1.15,2.55c.26.58.66,1.09,1.16,1.48l24.75,19.45c1.45,1.14,1.92,3.14,1.12,4.8l-8.39,17.54c-.74,1.55-.39,3.41.87,4.59l26.04,24.31c.5.47.87,1.05,1.07,1.7l8.41,26.88c.23.74.67,1.39,1.27,1.88l32.94,26.88c2.06,1.68,1.9,4.87-.31,6.34l-39.24,26.16c-.84.56-1.87.78-2.87.6l-14.55-2.57c-.59-.1-1.19-.07-1.76.09l-24.48,6.92c-1.74.49-2.92,2.1-2.87,3.91l.14,5.08c.05,1.7-1,3.24-2.6,3.82l-1.76.64c-1.56.57-2.6,2.05-2.6,3.71v12.42c0,1.76,1.16,3.3,2.85,3.79l1.64.47Z" fill="#e6007e" stroke="#fff" stroke-miterlimit="10" stroke-width="5"/>
  <path id="Steiermark" d="M1347.65,894.08l4.76-14.27c.94-2.83,4.13-4.21,6.84-2.97l14.78,6.77c1.85.85,4.02.49,5.51-.9l34.65-32.41c1.74-1.63,2.09-4.25.85-6.28l-16.34-26.66c-.35-.56-.58-1.19-.68-1.84l-4.4-28.16c-.28-1.77.41-3.55,1.8-4.67l22.15-17.89c1.03-.83,2.34-1.22,3.65-1.09l45.24,4.52c1.69.17,3.19,1.19,3.96,2.7l20.4,39.87c.24.47.55.89.92,1.26l.22.22c1.36,1.36,3.38,1.82,5.19,1.19l38.03-13.27c1.28-.45,2.68-.36,3.89.25l35.85,17.93c1.42.71,3.09.7,4.51-.01l127.04-64.48c1.66-.84,3.66-.69,5.18.39l2.65,1.9c1.19.85,2.69,1.14,4.11.79l16.4-4.04c1.07-.26,2.2-.17,3.21.27l11.12,4.87c.68.3,1.29.75,1.78,1.31l8.98,10.37c1.81,2.09,4.97,2.32,7.06.51l16.8-14.51c.91-.79,2.07-1.22,3.27-1.22h28.68c.3,0,.6-.03.9-.08l29.76-5.41c1.73-.32,3.18-1.52,3.79-3.17l4.15-11.06c.54-1.44,1.71-2.55,3.18-3.02l33.56-10.6c1.35-.43,2.81-.26,4.03.45l22.08,12.88,32.66,21.13c.87.56,1.89.84,2.93.8l20.94-.87c.96-.04,1.9.19,2.73.68l31.55,18.37c1.56.91,2.51,2.59,2.49,4.4l-.28,19.66c-.02,1.18.38,2.33,1.13,3.24l5.39,6.58c1.45,1.77,3.9,2.33,5.98,1.38l7.34-3.39c1.35-.62,2.92-.61,4.26.03l17.33,8.29c2.08,1,3.21,3.28,2.74,5.54l-2.83,13.58c-.68,3.28,1.98,6.29,5.32,6.01l3.52-.29c1.16-.1,2.31.21,3.26.87l40.15,27.72c.25.17.48.37.7.58l3.38,3.38c1.86,1.86,4.84,1.96,6.82.24l6.55-5.68c2.49-2.15,6.34-1.37,7.78,1.59l16.33,33.41c1.43,2.92-.26,6.4-3.44,7.1l-13.2,2.87c-2.12.46-3.7,2.24-3.92,4.4l-.19,1.87c-.26,2.56-2.41,4.51-4.98,4.51h0c-1,0-1.97-.3-2.8-.86l-.16-.11c-2.43-1.63-5.73-.85-7.17,1.7l-5.35,9.51c-.63,1.13-.81,2.45-.49,3.7l26.74,104.09c.47,1.82-.12,3.74-1.52,4.99l-12.26,10.9c-1.95,1.74-2.24,4.68-.67,6.77l26.11,34.53c1.26,1.67,1.35,3.95.23,5.71l-24.66,38.74c-.92,1.44-2.51,2.32-4.23,2.32h-11.39c-2.54,0-4.68,1.9-4.97,4.42l-7.67,64.77c-.14,1.17.14,2.35.78,3.33l17.38,26.52c.41.63.68,1.34.78,2.08l.55,4.12c.54,4.06-3.75,7.02-7.35,5.07l-50.67-27.41c-1.08-.58-2.34-.75-3.53-.47l-69.7,16.46c-.3.07-.59.17-.87.29l-21.77,9.58c-1.73.76-2.88,2.42-2.98,4.31l-.62,11.14c-.12,2.24-1.72,4.13-3.92,4.61l-20.68,4.59c-1.64.36-3.35-.12-4.56-1.28l-21.07-20.22c-1.24-1.19-3.01-1.66-4.68-1.25l-47.8,11.95c-.99.25-2.02.19-2.97-.17l-37.65-14.12c-.59-.22-1.13-.55-1.59-.97l-17.64-15.87c-1.06-.95-1.66-2.3-1.66-3.72v-31.97c0-1.74-.9-3.35-2.38-4.27l-6.89-4.24c-2.13-1.31-2.97-4-1.96-6.29l12.29-27.85c.6-1.37.56-2.93-.1-4.26l-1.75-3.49c-.75-1.5-.7-3.27.13-4.73l5.12-8.95c.95-1.66.87-3.72-.21-5.31l-26.06-38.22c-1.28-1.88-3.68-2.66-5.82-1.9l-6.78,2.42c-2.11.75-4.47.01-5.77-1.82l-17.43-24.56c-1.38-1.94-3.94-2.65-6.12-1.68l-21.31,9.47c-1.24.55-2.21,1.59-2.67,2.87l-1.85,5.08c-.82,2.27-3.15,3.63-5.53,3.23l-23.06-3.84c-1.75-.29-3.53.37-4.67,1.73l-.86,1.04c-1.37,1.65-3.64,2.24-5.65,1.47l-19.23-7.4c-2.04-.78-4.35-.16-5.71,1.55l-3.12,3.9c-1.5,1.88-4.13,2.42-6.26,1.3l-10.6-5.61c-1.68-.89-3.71-.75-5.26.35l-13.62,9.73c-2.53,1.81-6.09.89-7.43-1.92l-6.89-14.41c-.92-1.92-2.95-3.05-5.07-2.82l-20.79,2.31c-1.67.19-3.32-.48-4.4-1.77l-16.68-20.02c-1-1.2-2.51-1.87-4.08-1.8l-17.9.81c-1.05.05-2.06.42-2.88,1.07l-40.61,32.11c-.74.58-1.29,1.36-1.61,2.24l-3.81,10.67c-.45,1.26-1.39,2.29-2.6,2.86l-38.64,17.97c-1.54.71-3.33.6-4.77-.29l-8.58-5.36c-2.66-1.66-3.15-5.33-1.03-7.64l39.1-42.57c1.14-1.24,1.58-2.97,1.17-4.6l-2.12-8.5c-.67-2.69.97-5.42,3.67-6.08l28.64-6.98c3.52-.86,4.99-5.05,2.79-7.92l-58.32-75.9-.18-.24c-1.59-2.11-4.54-2.63-6.75-1.18l-22.74,14.9c-1.45.95-3.28,1.08-4.84.36l-21.35-9.86c-1.35-.62-2.35-1.81-2.74-3.24l-14.99-55.28c-.26-.95-.23-1.96.08-2.9Z" fill="#e6007e" stroke="#fff" stroke-miterlimit="10" stroke-width="5"/>
  <path id="Italien" d="M368.74,1107.48l-32.57,73.29c-1.64,3.7.08,8.03,3.82,9.58l6.74,2.8c2.69,1.12,4.44,3.74,4.44,6.66v30.4c0,4.69-4.4,8.13-8.95,7l-48.85-12.14c-1.44-.36-2.73-1.15-3.7-2.27l-12.35-14.2c-3.11-3.57-8.76-3.23-11.41.7l-42.37,62.75c-2.36,3.49-1.23,8.24,2.43,10.31l21.67,12.23c4.75,2.68,4.92,9.47.3,12.38l-11.73,7.38c-2.93,1.84-4.13,5.51-2.87,8.73l13.45,34.38c1.35,3.44-.13,7.35-3.42,9.04l-26.3,13.5c-2.9,1.49-6.43.85-8.63-1.56l-7.48-8.23c-3.82-4.2-10.77-2.54-12.28,2.93l-11.36,41.18c-.71,2.59.07,5.36,2.03,7.19l55.39,51.7c.93.87,2.07,1.47,3.31,1.76l144.13,33.08c65.11,14.94,131.7,22.49,198.51,22.49h150.45c62.58,0,125.06-5.05,186.83-15.11l290.95-47.36c2.06-.34,3.88-1.55,4.98-3.33l42.25-68.53c.67-1.09,1.62-1.98,2.75-2.58l58.11-30.93c1.4-.75,2.52-1.93,3.18-3.38l7.22-15.88c1.09-2.4,3.4-4.01,6.03-4.21l17.6-1.3c3.07-.23,5.66-2.39,6.44-5.37l3.1-11.88c.91-3.51-.92-7.15-4.28-8.5l-48.89-19.73c-1.45-.59-3.05-.68-4.57-.28l-37.32,10.01c-.89.24-1.82.31-2.74.19l-37.81-4.61c-1.18-.14-2.31-.58-3.28-1.27l-31.01-21.89c-.99-.7-2.14-1.14-3.34-1.27l-92.35-10.47c-1.81-.21-3.48-1.09-4.66-2.47l-8.94-10.43c-.8-.93-1.82-1.64-2.97-2.07l-24.22-8.97c-.68-.25-1.4-.4-2.12-.44l-15.93-.84c-1.29-.07-2.54-.48-3.62-1.2l-9.24-6.16c-.74-.49-1.56-.84-2.42-1.04l-45.81-10.28c-1.23-.28-2.37-.87-3.3-1.73l-21.47-19.76c-1.35-1.24-2.18-2.96-2.31-4.79l-.52-7.29c-.17-2.41-1.54-4.57-3.64-5.76l-20.87-11.83c-3.26-1.85-4.56-5.89-2.99-9.29l7.92-17.16c.83-1.8.88-3.86.15-5.7l-2.28-5.7c-1.44-3.59-5.45-5.41-9.09-4.12l-6.09,2.15c-2.67.94-5.64.23-7.6-1.81l-16.27-16.97c-2.11-2.2-2.61-5.49-1.24-8.21l2.71-5.42c1.24-2.47.95-5.43-.73-7.62l-5.75-7.48c-.97-1.26-1.49-2.81-1.49-4.39v-19.92c0-3.75,2.87-6.87,6.61-7.18l13.35-1.11c2.51-.21,4.72-1.71,5.85-3.96l.77-1.53c2.19-4.37-.52-9.6-5.35-10.35l-1.37-.21c-1.22-.19-2.47-.06-3.62.37l-134.73,50.4c-1.62.61-3.4.61-5.02.01l-60.11-22.2c-1.54-.57-3.22-.59-4.78-.08l-35.01,11.67c-1.05.35-2.16.45-3.25.3l-39.52-5.39c-1.81-.25-3.65.2-5.14,1.26l-36.52,25.83c-1.39.99-2.39,2.43-2.82,4.08l-7.34,28.44-.15.59c-.54,2.15-2.04,3.94-4.07,4.84l-48.13,21.39c-1.7.76-3.63.82-5.38.19l-62.99-22.82c-2.07-.75-3.69-2.41-4.38-4.5l-3.73-11.19c-.73-2.2-2.48-3.91-4.69-4.6l-10.97-3.43c-.99-.31-2.04-.4-3.07-.27l-25.71,3.32c-2.34.3-4.67-.56-6.26-2.3l-1.98-2.18c-2.92-3.21-7.98-3.13-10.81.16h0c-.45.53-.83,1.12-1.11,1.76Z" fill="#e6007e" stroke="#fff" stroke-miterlimit="10" stroke-width="5"/>
  <path id="Niederösterreich" d="M1740.1,284.7l-26.96,41.34c-.63.97-.97,2.1-.97,3.25v31.03c0,2.05,1.06,3.96,2.8,5.05l52.45,32.8c2.23,1.39,3.28,4.08,2.59,6.62l-4.13,15.16c-.45,1.63-.17,3.38.75,4.8l22.6,34.93c.62.96.96,2.09.96,3.24v15.44c0,1.49.56,2.92,1.56,4.02l5.88,6.44c1,1.1,1.56,2.53,1.56,4.02v38.23c0,1.42-.51,2.79-1.43,3.87l-14.83,17.37c-1.65,1.93-4.33,2.6-6.69,1.68l-12.43-4.84c-3.91-1.52-8.12,1.36-8.12,5.55h0c0,2.42-1.47,4.61-3.71,5.52l-55.97,22.76c-2.3.93-4.93.35-6.61-1.47l-33.02-35.63c-1.36-1.47-3.37-2.16-5.35-1.83l-4.68.78c-2.49.41-4.44,2.35-4.89,4.83l-7.07,39.79c-.13.71-.12,1.43,0,2.13l7.27,39.08c.33,1.8,1.48,3.35,3.1,4.19l69.06,36c1.79.93,2.98,2.7,3.18,4.71l2.8,28.98c.23,2.4-1.01,4.71-3.14,5.84l-9.35,4.95c-2.42,1.28-3.66,4.05-2.99,6.71l4.54,18.17c.75,3,3.67,4.93,6.72,4.44l17.04-2.73c1.64-.26,3.31.17,4.61,1.19l17.86,13.97c1.88,1.47,4.45,1.68,6.54.53l27.3-15.03c.82-.45,1.74-.7,2.68-.74l38.41-1.26c1.4-.05,2.73-.58,3.77-1.51l16.33-14.58c.72-.64,1.59-1.1,2.52-1.34l43.89-10.98c1.68-.42,3.46-.09,4.88.91l46.9,33.1c1.2.85,2.68,1.22,4.15,1.05l20.63-2.48c1.35-.16,2.72.14,3.88.87l38.43,24.13c1.74,1.09,2.79,3,2.79,5.05v22.2c0,3.29,2.67,5.96,5.96,5.96h10.73c.82,0,1.64.17,2.39.5l19.36,8.49c2.17.95,3.56,3.09,3.56,5.46v10.41c0,1.96.97,3.8,2.59,4.91l40.76,27.97c1.65,1.14,3.77,1.36,5.63.6l13.67-5.59c2.98-1.22,6.39.15,7.7,3.09l19.53,43.95c1.21,2.73,4.26,4.14,7.12,3.3l9.37-2.76c1.66-.49,3.03-1.68,3.75-3.26l17.34-38.34c.35-.77.53-1.61.53-2.46v-14.13c0-.38.04-.77.11-1.15l9.48-48.35c.27-1.35.05-2.76-.6-3.97l-24.59-45.67c-1.38-2.57-.7-5.76,1.61-7.54l27.01-20.84c2.3-1.78,2.99-4.95,1.62-7.52l-3.06-5.74c-1.45-2.73-.58-6.11,2.01-7.8l14.94-9.71c.32-.21.66-.38,1.01-.53l32.01-12.98c2.6-1.05,5.59-.15,7.16,2.17l9.49,13.95c2.33,3.43,7.36,3.49,9.77.11l9.43-13.21c.4-.55.69-1.17.88-1.83l3.34-11.7c.25-.87.69-1.66,1.29-2.34l15.14-16.92c.63-.7,1.41-1.24,2.28-1.58l33.75-13.12c.61-.24,1.18-.57,1.68-1l14.71-12.38c2.08-1.75,5.09-1.87,7.3-.29l18.29,13.06c3.07,2.19,7.38,1.01,8.91-2.44l18.6-42.06c.89-2,.6-4.33-.74-6.06l-21.54-27.82c-.19-.25-.36-.51-.52-.79l-28.39-51.89c-.25-.46-.44-.95-.56-1.46l-13.18-54.62c-.4-1.66-.07-3.41.91-4.81l31.85-45.51c1.02-1.45,1.33-3.28.87-4.99l-18.22-66.49c-.63-2.31-2.59-4.01-4.96-4.33l-52.88-7.05c-2-.27-3.73-1.53-4.6-3.35l-9.61-20.28c-.83-1.75-2.46-2.99-4.36-3.32l-45.02-7.84c-2.22-.39-4.47.52-5.81,2.33l-26.68,36.15c-1.31,1.77-3.49,2.68-5.67,2.35l-82.03-12.26c-.94-.14-1.83-.5-2.6-1.06l-33.2-23.9c-.23-.17-.46-.35-.66-.55l-38.75-37.52c-.79-.77-1.78-1.3-2.86-1.54l-15.99-3.52c-1.81-.4-3.69.07-5.11,1.25l-13.28,11.14c-1.81,1.51-4.34,1.82-6.45.78l-50.52-24.8c-.66-.33-1.26-.77-1.76-1.31l-20.84-22.65c-.91-.99-2.13-1.64-3.46-1.85l-45.18-7.09c-2.3-.36-4.59.65-5.88,2.58l-10.05,15.07c-1.14,1.72-3.09,2.72-5.16,2.65l-20.34-.68c-3.44-.11-6.06-3.11-5.73-6.53l1.83-18.92c.31-3.21-1.99-6.08-5.19-6.49l-35.29-4.41c-3.65-.46-6.83,2.47-6.69,6.14l2.69,69.47c.03.74-.08,1.48-.33,2.19l-11.02,31.7c-.94,2.69-3.65,4.34-6.47,3.94l-26.38-3.77c-2.29-.33-4.57.7-5.83,2.64Z" fill="#e6007e" stroke="#fff" stroke-miterlimit="10" stroke-width="5"/>
  <path id="Burgenland" d="M2104.86,1157.57l-3.78,24.97c-.31,2.07,2.11,3.42,3.71,2.07l54.03-45.79c.24-.2.52-.35.81-.44l19.03-5.71c.34-.1.66-.29.92-.53l21.95-20.99c.42-.4.98-.63,1.57-.63h35.38c1.42,0,2.49-1.3,2.23-2.69l-3.11-16.2c-.23-1.18.51-2.33,1.68-2.63l20.2-5.05c1.01-.25,1.72-1.16,1.72-2.2v-7.15c0-.85-.48-1.63-1.24-2.02l-14.97-7.64c-1.38-.7-1.66-2.54-.56-3.63l15.08-14.92c.92-.91.89-2.41-.07-3.29l-28.86-26.33c-.8-.73-.97-1.93-.41-2.86l20.6-33.7c.28-.45.39-.99.31-1.52l-8.46-56.37c-.22-1.44.96-2.71,2.42-2.6l22.61,1.74c.36.03.73-.03,1.07-.18l33.45-14.34c.65-.28,1.13-.85,1.31-1.53l5.64-22.56c.06-.23.15-.45.28-.65l13.49-21.58c.71-1.13.29-2.63-.91-3.23l-18.52-9.26c-.77-.38-1.25-1.17-1.25-2.03v-17.59c0-.64-.27-1.25-.75-1.68l-8.06-7.25c-.71-.64-1.76-.77-2.6-.31l-8.64,4.71c-.6.33-1.31.37-1.95.11l-36.37-14.92c-.96-.39-1.53-1.39-1.38-2.42l1.57-11.02c.11-.77.6-1.42,1.31-1.74l22.68-10.3c.82-.37,1.34-1.19,1.33-2.09l-.12-11.36c-.01-1.03.67-1.94,1.66-2.21l25.24-6.96c1.16-.32,2.37.32,2.75,1.47l2.8,8.41c.31.93,1.17,1.55,2.15,1.55h13.94c.87,0,1.66.5,2.04,1.28l11.74,24.38c.39.81,1.23,1.32,2.13,1.28l22.75-.87c1.04-.04,1.92-.78,2.13-1.8l3.15-14.97c.26-1.26,1.52-2.04,2.77-1.73h0c1.01.25,1.72,1.16,1.72,2.2v9.18c0,1.41,1.28,2.48,2.67,2.23l57.38-10.27c1.08-.19,1.87-1.13,1.87-2.23v-29.06c0-.35-.08-.69-.23-1l-5.39-11.03c-.19-.4-.27-.84-.21-1.28l1.75-13.96c.11-.84-.27-1.67-.97-2.15l-10.31-7.09c-1.67-1.15-1.11-3.74.89-4.1l20.95-3.74c.96-.17,1.71-.94,1.85-1.91l6.64-46.46c.08-.59.39-1.12.86-1.48l9.8-7.54c1.22-.94,1.17-2.79-.1-3.66l-12.33-8.48c-.68-.47-1.56-.53-2.3-.16l-4.28,2.14c-1.3.65-2.86-.07-3.21-1.48l-3.15-12.6c-.11-.43-.09-.88.06-1.29l7.33-21.07c.28-.79.09-1.67-.48-2.29l-9.79-10.54c-1.09-1.18-3.03-.88-3.71.58l-22.46,47.61c-.59,1.25-2.14,1.68-3.29.93l-25.37-16.62c-.86-.56-1.98-.48-2.75.2l-16.43,14.6c-.18.16-.39.3-.62.39l-32.17,13.65c-.32.13-.6.34-.83.6l-12.47,14.39c-.12.14-.23.3-.31.47l-8.74,17.49c-.09.17-.19.33-.32.48l-16.03,18.33c-.93,1.06-2.59,1.03-3.47-.07l-16.22-20.13c-.64-.8-1.74-1.06-2.67-.65l-44.35,19.4c-1.14.5-1.67,1.83-1.17,2.97l4.81,11.23c.2.46.24.96.12,1.44l-.62,2.48c-.13.51-.42.95-.84,1.26l-29.88,22.41c-.86.65-1.15,1.81-.69,2.78l22.93,48.73c.19.39.25.83.2,1.26l-8.87,67.01c-.03.22-.09.44-.18.64l-19.43,42.75c-.27.6-.79,1.05-1.43,1.24l-45.55,13.29c-.88.26-1.52,1.02-1.62,1.93l-.65,5.85c-.11.98-.84,1.78-1.81,1.97l-7.38,1.48c-.63.13-1.29-.02-1.8-.41l-1.09-.82c-1.11-.83-2.69-.48-3.35.73l-4.32,7.92c-.27.5-.35,1.09-.21,1.64l21.78,86.14,5.64,20.69c.22.81-.02,1.67-.63,2.25l-14.53,13.67c-.84.79-.95,2.1-.25,3.02l26.64,35.2c.09.12.17.24.23.38l1.36,2.79c.34.7.3,1.52-.11,2.18l-28.64,46.67c-.44.71-1.24,1.13-2.07,1.08l-12.57-.79c-1.17-.07-2.21.76-2.38,1.92Z" fill="#e6007e" stroke="#fff" stroke-miterlimit="10" stroke-width="5"/>
  <path id="Deutschland" d="M2.84,379.56c-.22.64-.34,1.32-.34,2v122.52s0,32.87,0,32.87c0,43.43,5.05,86.72,15.06,128.99l9.09,38.38c.34,1.43,1.18,2.68,2.37,3.54l58.61,42.2c1.01.73,2.21,1.13,3.45,1.15l13.27.24c2.83.05,5.25,2.04,5.85,4.8l3.2,14.71c.48,2.2,2.13,3.96,4.3,4.57l19.39,5.46c2.41.68,4.98-.18,6.5-2.17l34.67-45.47c1.71-2.24,4.73-3.02,7.3-1.88l19.62,8.64c2,.88,3.38,2.77,3.61,4.95l3.06,29.34c.21,1.97,1.35,3.71,3.08,4.68l67.14,37.71c1.92,1.08,3.11,3.11,3.11,5.31v3.03c0,1.63-.65,3.18-1.8,4.33l-11.67,11.58c-1.56,1.55-2.17,3.81-1.59,5.93l.49,1.79c.88,3.21,4.16,5.12,7.39,4.3l33.68-8.6c3.81-.97,7.51,1.91,7.51,5.84v.07c0,.75-.13,1.46-.38,2.14-1.29,3.48-5.65,15.22-9.44,25.41-2.02,5.44,3.98,10.35,8.92,7.3l17.95-11.09c.63-.39,1.19-.89,1.64-1.48l37.06-48.47c.81-1.06,1.25-2.36,1.25-3.7v-52.34c0-4.17,4.09-7.11,8.04-5.77l44.48,15.01c.32.11.64.19.97.24l94.1,15.36c2.12.35,3.89,1.78,4.68,3.77l18.82,47.5c.58,1.47,1.71,2.65,3.14,3.3l16.2,7.36c2.17.99,4.71.62,6.51-.94l10.55-9.14c.97-.84,2.19-1.36,3.47-1.47l39.78-3.39c3.01-.26,5.76,1.73,6.45,4.68l.16.68c1.12,4.76,7.11,6.33,10.42,2.73l36.17-39.32c1.29-1.4,3.16-2.12,5.05-1.94l36.46,3.39c2.18.2,4.31-.78,5.56-2.58l19.18-27.53c1.12-1.61,2.95-2.58,4.91-2.61l127.56-1.95c.22,0,.43,0,.64.02l23.3,2.12c4.4.4,7.75-3.87,6.32-8.05l-6.32-18.38c-.94-2.74.18-5.77,2.68-7.24l44.52-26.1c4.06-2.38,9.18.55,9.18,5.26v15.84c0,3.19,2.47,5.85,5.65,6.08l42.38,3.08c2.89.21,5.23,2.43,5.6,5.3l2.77,21.47c.35,2.71,2.47,4.86,5.17,5.25l8.22,1.19c2.93.42,5.73-1.32,6.66-4.12l2.81-8.52c.47-1.42,1.45-2.62,2.74-3.37l21.53-12.42c1.56-.9,3.44-1.06,5.13-.45l50.63,18.41c1.11.4,2.08,1.12,2.79,2.07l.49.66c.91,1.22,1.34,2.73,1.19,4.25l-3.47,35.52c-.19,1.96.58,3.89,2.06,5.18l37.95,33.1c3.22,2.81,8.26,1.52,9.73-2.5l19.06-52.2c.57-1.57.48-3.32-.27-4.82l-15.95-31.89c-1.13-2.26-3.54-3.59-6.06-3.34l-20.37,2.04c-3.1.31-5.93-1.77-6.57-4.82l-7.1-33.94c-.47-2.27.38-4.61,2.2-6.04l21.25-16.7c2.21-1.74,2.95-4.77,1.78-7.32l-34.48-75.49c-.35-.76-.84-1.43-1.46-1.99l-27.18-24.55c-1.76-1.59-2.44-4.05-1.74-6.32l10.14-32.96c.46-1.49,1.48-2.75,2.84-3.52l44.62-25.1c.83-.47,1.76-.73,2.71-.78l18.24-.83c1.49-.07,2.9-.68,3.97-1.72l32.93-32.01c.92-.89,2.09-1.47,3.36-1.66l64.22-9.44c1.19-.18,2.3-.7,3.2-1.51l27.96-25.25c1.08-.97,1.77-2.3,1.96-3.74l6.47-49.88c.16-1.23-.06-2.48-.63-3.58l-11.16-21.57c-1.61-3.11-.27-6.94,2.93-8.36l37.96-16.96c1.96-.87,4.23-.66,5.98.57l50.48,35.33c3.34,2.34,7.99.8,9.28-3.07l3.09-9.27c.22-.65.54-1.26.96-1.8l15.2-19.67c.76-.98,1.2-2.18,1.26-3.42l2.86-57.23c.03-.57-.02-1.15-.16-1.71l-11.69-49.47c-.65-2.75-3.11-4.69-5.93-4.69h-28.96c-1.98,0-3.84-.96-4.98-2.58l-26.12-37.01c-1.78-2.52-5.15-3.31-7.87-1.85l-15.15,8.16c-3.23,1.74-7.26.25-8.58-3.18l-30.74-79.86c-1.18-3.05-4.56-4.64-7.65-3.58l-21.9,7.46c-2.51.86-5.29-.01-6.87-2.15l-27.98-37.91c-.25-.34-.46-.7-.63-1.07l-15.25-33.19c-.92-2-2.85-3.35-5.05-3.53L778.08,3.72c-26.54-2.13-53.22-1.48-79.62,1.96l-185.79,24.15c-114.6,14.9-223.82,57.58-318.16,124.32l-47.47,33.59C80.14,235.07,27.17,260.52,2.84,379.56h0Z" fill="#e6007e" stroke="#fff" stroke-miterlimit="10" stroke-width="5"/>
  <path id="Tirol" d="M1141.99,1165.11l-32.18-25.02c-.45-.36-.77-.85-.9-1.41l-5.63-24.4c-.11-.48-.36-.92-.72-1.26l-31.96-30.08c-.87-.81-1.04-2.13-.4-3.13l12.58-20.13c.73-1.18.36-2.73-.82-3.45l-15.6-9.53c-.16-.11-.32-.23-.46-.37l-24.51-24.51c-.19-.19-.41-.35-.64-.46l-37.02-18.51c-.4-.2-.86-.29-1.31-.25l-35.61,2.88c-.46.04-.9.2-1.27.47l-47.37,29.57c-.09,0-6.67,8.84-14,5-1.52-.8-9.27-17.69-10.04-19.16l-17.46-74.35c-.36-1.61-.25-3.3.33-4.84l3.27-8.73c1.13-3,3.85-5.11,7.04-5.45l105.41-11.19c1.56-.17,3.05-.76,4.29-1.72l79.1-61.19v-47.34l-34.23-21.56c-1.35-.85-2.92-1.3-4.51-1.3h-20.34c-3.64,0-6.87-2.32-8.03-5.77l-6.75-20.04c-1.16-3.45-4.39-5.77-8.03-5.77h-33.65c-4.68,0-8.47-3.79-8.47-8.47v-5.62c0-7.08-8.16-11.03-13.72-6.65l-19.31,15.25c-2.95,2.33-4.01,6.31-2.61,9.8l5.74,14.32c2.36,5.9-2.37,12.2-8.69,11.58l-42.23-4.14c-.4-.04-.81-.05-1.21-.03l-116.11,5.31c-2.94.13-5.61,1.79-7.03,4.37l-13.35,24.22c-1.52,2.76-4.45,4.45-7.6,4.38l-37.08-.81c-2.41-.05-4.73.93-6.38,2.69l-38.06,40.78c-.89.96-1.99,1.69-3.22,2.15l-7.01,2.63c-4.56,1.71-9.43-1.66-9.43-6.54h0c0-3.79-3.09-6.71-6.87-6.5l-27.91,1.55c-1.89.1-3.68.84-5.11,2.08l-9.23,8.08c-2.73,2.39-6.69,2.77-9.83.95l-23.19-13.47c-1.65-.96-2.93-2.45-3.63-4.23l-17.04-43.46c-1.15-2.94-3.85-5-7-5.33l-32.61-3.43c-.18-.02-.36-.05-.54-.07l-56.86-9.72c-.39-.07-.77-.16-1.14-.28l-29.25-9.31c-5.59-1.78-11.25,2.53-11.03,8.39l1.43,37.9c.07,1.97-.54,3.91-1.75,5.48l-40.03,52.14c-.73.95-1.65,1.73-2.7,2.3l-33.21,17.88c-2.6,1.4-4.29,4.06-4.44,7.01l-3.52,66.8c-.15,2.78-1.65,5.32-4.03,6.78l-21.37,13.1c-3.4,2.09-4.89,6.26-3.56,10.03l9.41,26.77c.84,2.39.57,5.03-.74,7.19l-17.66,29.18c-1.94,3.21-1.54,7.3.98,10.08l12,13.21c3.43,3.78,9.39,3.69,12.71-.19l25.05-29.27,16.51-19.99c2.6-3.15,7.08-4,10.65-2.01l21.49,11.98c2.68,1.5,4.35,4.33,4.35,7.4v22.54c0,1.72.53,3.4,1.51,4.82l13.5,19.5c1.83,2.65,5.01,4.03,8.2,3.56l27.14-3.99c1.1-.16,2.21-.11,3.29.16l13.63,3.41c2.94.73,5.26,2.98,6.09,5.89l3.45,12.07c.76,2.65,2.75,4.76,5.35,5.67l58.85,20.55,47.15-21.26c2.43-1.09,4.2-3.27,4.78-5.86l5.55-24.67c.46-2.06,1.68-3.87,3.41-5.08l40.67-28.41c1.58-1.1,3.49-1.64,5.41-1.51l40.6,2.71c.95.06,1.9-.03,2.81-.28l36.1-9.93c1.64-.45,3.39-.4,5,.16l58.71,20.18c1.82.63,3.81.61,5.62-.04l120.25-44.01,1.97-.98c1.23-.62,2.68-.65,3.93-.07.06.03.1.05.1.05l21.38,21.42c-.27.97-1.09,1.69-2.09,1.82l-18.92,2.46c-1.35.18-2.31,1.4-2.16,2.75l2.65,23.84c.05.48.24.93.55,1.3l7.34,8.97c.7.86.75,2.09.11,3.01l-6.13,8.77c-.69.97-.58,2.3.25,3.16l15.74,16.26c.73.76,1.86.97,2.82.53l14.12-6.41c1.26-.57,2.74-.02,3.31,1.24l8.53,18.93c.28.62.3,1.33.04,1.96l-8.72,21.55c-.49,1.22.06,2.62,1.25,3.19l22.86,10.79c.64.31,1.13.87,1.33,1.55l4.53,15.42c.1.34.27.65.5.92l17.18,20.04c.31.36.71.62,1.16.76l37.95,11.68c.24.07.49.11.74.11h20.02c.75,0,1.47.35,1.94.94l4.91,6.13c.48.59,1.19.93,1.95.93h8.42c1.38,0,2.5-1.12,2.49-2.51l-.1-18.98c0-1.38,1.11-2.51,2.5-2.51.69,0,1.31-.28,1.76-.73.45-.45.73-1.07.73-1.76v-8.25c0-1.12.74-2.09,1.8-2.4l33.38-9.62c.53-.16,1.1-.13,1.62.08l7.75,3.1c.88.35,1.9.17,2.61-.48l10.58-9.7c.17-.16.37-.29.57-.39l24.15-12.08c1.64-.82,1.87-3.07.42-4.2Z" fill="#e6007e" stroke="#fff" stroke-miterlimit="10" stroke-width="5"/>
  <path id="Wien" d="M2132.93,427.32l26.65,3.63c2.44.33,4.92-.01,7.17-1l20.42-8.94c2.44-1.07,4.5-2.83,5.93-5.08l5.94-9.34c2.46-3.86,6.72-6.2,11.29-6.2h12.27c5.01,0,9.61,2.8,11.9,7.26l19.26,37.42c.65,1.27,1.1,2.63,1.32,4.04l4.11,26.04c.47,2.99,1.94,5.73,4.18,7.78l6.95,6.38c5.62,5.15,5.81,13.94.42,19.33h0c-2.51,2.51-5.91,3.92-9.46,3.92h-33.98c-1.45,0-2.89.24-4.26.7l-30.43,10.23c-2.24.75-4.65.9-6.96.42l-52.35-10.78c-1.83-.38-3.56-1.13-5.08-2.22l-18.08-12.91c-2.44-1.75-4.23-4.26-5.07-7.15l-6.33-21.72c-1.21-4.15-.34-8.63,2.33-12.02l19.53-24.81c2.93-3.73,7.62-5.62,12.32-4.98Z" fill="#e6007e" stroke="#fff" stroke-miterlimit="10" stroke-width="9"/>
</svg>